<svg width="27" height="14" viewBox="0 0 27 14" fill="none" xmlns="http://www.w3.org/2000/svg"><path d="M25.2 5.30893L15.8571 1.02489C14.4 0.36896 12.7929 0 11.1857 0C9.85714 0 8.52857 0.245974 7.28571 0.696926C7.24286 0.696926 7.17857 0.717424 7.13571 0.737921L7.05 0.778916C7.00714 0.799414 6.96429 0.819913 6.92143 0.84041L2.85 2.41874C1.11429 3.09517 0 4.6735 0 6.45681V10.2899C0 10.6384 0.278571 10.9048 0.642857 10.9048H3.27857C3.57857 12.6471 5.16429 13.9795 7.07143 13.9795C9.19286 13.9795 10.9286 12.3192 10.9286 10.2899C10.9286 8.26062 9.19286 6.60029 7.07143 6.60029C5.16429 6.60029 3.57857 7.93265 3.27857 9.67496H1.28571V6.45681C1.28571 5.18595 2.07857 4.03807 3.32143 3.56662L6.92143 2.17277C7.84286 4.20205 9.96429 5.5754 12.3214 5.5754H16.5643C16.9286 5.5754 17.2071 5.30893 17.2071 4.96047C17.2071 4.61201 16.9286 4.34553 16.5643 4.34553H12.3214C10.5 4.34553 8.85 3.30015 8.12143 1.72182C9.10714 1.39385 10.1357 1.22987 11.2071 1.22987C12.6214 1.22987 14.0357 1.53733 15.3214 2.13177L24.6429 6.41581C25.2857 6.72328 25.7143 7.35871 25.7143 8.05564V9.69546H24.7929C24.4929 7.95315 22.9071 6.62079 21 6.62079C18.8786 6.62079 17.1429 8.28111 17.1429 10.3104C17.1429 12.3397 18.8786 14 21 14C22.9071 14 24.4929 12.6676 24.7929 10.9253H26.3571C26.7214 10.9253 27 10.6589 27 10.3104V8.03514C27 6.88726 26.2929 5.80088 25.2 5.30893ZM7.07143 7.83016C8.48571 7.83016 9.64286 8.93704 9.64286 10.2899C9.64286 11.6428 8.48571 12.7496 7.07143 12.7496C5.65714 12.7496 4.5 11.6428 4.5 10.2899C4.5 8.93704 5.65714 7.83016 7.07143 7.83016ZM21 12.7496C19.5857 12.7496 18.4286 11.6428 18.4286 10.2899C18.4286 8.93704 19.5857 7.83016 21 7.83016C22.4143 7.83016 23.5714 8.93704 23.5714 10.2899C23.5714 11.6428 22.4143 12.7496 21 12.7496Z" fill="#606680"></path></svg>