<svg width="25" height="33" viewBox="0 0 25 33" fill="none" xmlns="http://www.w3.org/2000/svg"><path d="M2.62 7.61655C4.26 7.61655 5.2 6.15655 5.2 4.12655C5.2 1.87655 4.11 0.626549 2.62 0.626549C0.99 0.626549 0.04 2.08655 0.04 4.12655C0.04 6.36655 1.13 7.61655 2.62 7.61655ZM2.62 6.83655C1.61 6.83655 0.9 5.86655 0.9 4.12655C0.9 2.47655 1.53 1.40655 2.62 1.40655C3.64 1.40655 4.34 2.37655 4.34 4.12655C4.34 5.76655 3.72 6.83655 2.62 6.83655ZM6.29023 4.87655H9.25023V4.07655H6.29023V4.87655ZM11.1284 7.55655H11.9684V0.686549H11.2684L9.34844 2.10655L9.75844 2.73655L11.1284 1.69655V7.55655ZM15.9891 7.61655C17.6291 7.61655 18.5691 6.15655 18.5691 4.12655C18.5691 1.87655 17.4791 0.626549 15.9891 0.626549C14.3591 0.626549 13.4091 2.08655 13.4091 4.12655C13.4091 6.36655 14.4991 7.61655 15.9891 7.61655ZM15.9891 6.83655C14.9791 6.83655 14.2691 5.86655 14.2691 4.12655C14.2691 2.47655 14.8991 1.40655 15.9891 1.40655C17.0091 1.40655 17.7091 2.37655 17.7091 4.12655C17.7091 5.76655 17.0891 6.83655 15.9891 6.83655ZM22.2294 7.61655C23.8694 7.61655 24.8094 6.15655 24.8094 4.12655C24.8094 1.87655 23.7194 0.626549 22.2294 0.626549C20.5994 0.626549 19.6494 2.08655 19.6494 4.12655C19.6494 6.36655 20.7394 7.61655 22.2294 7.61655ZM22.2294 6.83655C21.2194 6.83655 20.5094 5.86655 20.5094 4.12655C20.5094 2.47655 21.1394 1.40655 22.2294 1.40655C23.2494 1.40655 23.9494 2.37655 23.9494 4.12655C23.9494 5.76655 23.3294 6.83655 22.2294 6.83655Z" fill="#606680"></path><path d="M9.69051 12V13.68H14.7084V12H9.69051ZM19.4911 13.9162L18.2889 15.1237L18.9422 15.78L18.0798 16.6725C16.4856 15.337 14.4307 14.52 12.1994 14.52C7.1293 14.52 3 18.6675 3 23.76C3 28.8525 7.1293 33 12.1994 33C17.2696 33 21.3989 28.8525 21.3989 23.76C21.3989 21.5189 20.5855 19.455 19.2558 17.8537L20.1444 16.9875L20.7978 17.6437L22 16.4362L19.4911 13.9162ZM12.1994 16.2C16.3647 16.2 19.7263 19.5764 19.7263 23.76C19.7263 27.9436 16.3647 31.32 12.1994 31.32C8.03422 31.32 4.67263 27.9436 4.67263 23.76C4.67263 19.5764 8.03422 16.2 12.1994 16.2ZM8.61898 18.9562L7.41678 20.1637L10.5791 23.34C10.5432 23.4745 10.5268 23.6156 10.5268 23.76C10.5268 24.6886 11.2749 25.44 12.1994 25.44C13.124 25.44 13.8721 24.6886 13.8721 23.76C13.8721 22.8314 13.124 22.08 12.1994 22.08C12.0557 22.08 11.9152 22.0964 11.7813 22.1325L8.61898 18.9562Z" fill="#606680"></path></svg>