<svg width="17" height="18" viewBox="0 0 17 18" fill="none" xmlns="http://www.w3.org/2000/svg"><path d="M8.23762 0.00302962C7.89095 0.0138209 7.53408 0.0542884 7.17721 0.110942H7.15682C3.68244 0.712556 0.868272 3.61001 0.162181 7.27635C-0.0493918 8.32041 -0.0366459 9.29432 0.101003 10.2547C0.106102 10.2574 0.101003 10.2709 0.101003 10.2763C0.315125 11.8977 2.3034 12.6072 3.42499 11.4202C4.22794 10.5704 5.41581 10.5704 6.21876 11.4202C7.02172 12.27 7.02172 13.5272 6.21876 14.377C5.09717 15.564 5.76758 17.6683 7.29957 17.895C7.30467 17.895 7.31741 17.8896 7.31996 17.895C8.21978 18.0406 9.1349 18.0487 10.1137 17.8302C10.1214 17.8302 10.1265 17.8302 10.1341 17.8302C13.6085 17.145 16.3386 14.0964 16.9045 10.4274V10.4058C17.6437 5.12889 13.9985 0.521011 9.25725 0.0461947C8.91823 0.0111233 8.5843 -0.00776165 8.23762 0.00302962ZM8.25802 1.38431C8.55371 1.37352 8.84685 1.37892 9.1349 1.4059C13.1777 1.79708 16.2519 5.69813 15.6197 10.2116C15.143 13.3033 12.8005 15.904 9.88942 16.4705H9.86903C9.03548 16.6594 8.26566 16.6621 7.4831 16.5353C6.9478 16.4651 6.70054 15.8311 7.13643 15.3698C8.42116 14.0101 8.42116 11.8087 7.13643 10.449C5.8517 9.08928 3.77166 9.08928 2.48693 10.449C2.05104 10.9103 1.45201 10.6486 1.38573 10.0821C1.26593 9.25385 1.26848 8.43911 1.44691 7.55692C2.04594 4.45713 4.43951 1.97514 7.36074 1.47064C7.66663 1.42208 7.96232 1.3951 8.25802 1.38431ZM7.1976 2.78718C6.47622 2.78718 5.89248 3.40498 5.89248 4.16846C5.89248 4.93195 6.47622 5.54975 7.1976 5.54975C7.91899 5.54975 8.50273 4.93195 8.50273 4.16846C8.50273 3.40498 7.91899 2.78718 7.1976 2.78718ZM11.7655 4.16846C11.0441 4.16846 10.4604 4.78626 10.4604 5.54975C10.4604 6.31323 11.0441 6.93103 11.7655 6.93103C12.4869 6.93103 13.0707 6.31323 13.0707 5.54975C13.0707 4.78626 12.4869 4.16846 11.7655 4.16846ZM3.9348 5.54975C3.21341 5.54975 2.62968 6.16755 2.62968 6.93103C2.62968 7.69451 3.21341 8.31231 3.9348 8.31231C4.65619 8.31231 5.23992 7.69451 5.23992 6.93103C5.23992 6.16755 4.65619 5.54975 3.9348 5.54975ZM13.0707 9.00295C12.3493 9.00295 11.7655 9.62075 11.7655 10.3842C11.7655 11.1477 12.3493 11.7655 13.0707 11.7655C13.792 11.7655 14.3758 11.1477 14.3758 10.3842C14.3758 9.62075 13.792 9.00295 13.0707 9.00295ZM10.4604 12.4562C9.73902 12.4562 9.15529 13.074 9.15529 13.8374C9.15529 14.6009 9.73902 15.2187 10.4604 15.2187C11.1818 15.2187 11.7655 14.6009 11.7655 13.8374C11.7655 13.074 11.1818 12.4562 10.4604 12.4562Z" fill="#606680"></path></svg>