<svg width="24" height="17" viewBox="0 0 24 17" fill="none" xmlns="http://www.w3.org/2000/svg"><path fill-rule="evenodd" clip-rule="evenodd" d="M9.82768 1.44217H7.3528V0.16217H13.5999V1.44217H11.125V2.56544H13.8684L16.0015 4.66829H18.3624V6.17033H19.8077V4.36788H22.4009L24 5.94426V14.8862L22.7057 16.1622H19.8077V13.7589H18.3624V16.1622H10.284L7.08429 13.0079H2.74261V9.02748H1.2973V12.3679H0V4.40707H1.2973V7.74748H2.74261V3.76707H5.86535L7.08429 2.56544H9.82768V1.44217ZM7.62132 3.84544L6.40238 5.04707H4.03991V11.7279H7.62132L10.821 14.8822H17.0651V12.4789H21.105V14.8822H22.1686L22.7027 14.3557V6.47478L21.8639 5.64788H21.105V7.45033H17.0651V5.94829H15.4645L13.3313 3.84544H7.62132Z" fill="#606680"></path></svg>