<svg width="14" height="18" viewBox="0 0 14 18" fill="none" xmlns="http://www.w3.org/2000/svg"><path d="M7 0C4.43273 0 2.33333 2.20845 2.33333 4.90909C2.33333 6.50071 3.05946 7.92294 4.18056 8.82102C3.69141 9.04794 3.24175 9.33239 2.81944 9.66477L0 7.54261V9.53693L1.65278 10.7898C0.619792 12.0746 0 13.7365 0 15.5455V18H1.55556V15.5455C1.55556 14.0849 2.06597 12.7457 2.91667 11.7358L11.2049 18H14V15.5455C14 12.5444 12.2773 9.9652 9.81944 8.82102C10.9405 7.92294 11.6667 6.50071 11.6667 4.90909C11.6667 2.20845 9.56727 0 7 0ZM7 1.63636C8.72873 1.63636 10.1111 3.09055 10.1111 4.90909C10.1111 6.72763 8.72873 8.18182 7 8.18182C5.27127 8.18182 3.88889 6.72763 3.88889 4.90909C3.88889 3.09055 5.27127 1.63636 7 1.63636ZM7 9.81818C10.0169 9.81818 12.4444 12.3718 12.4444 15.5455V16.9261L4.15625 10.6619C4.98568 10.1282 5.95486 9.81818 7 9.81818Z" fill="#606680"></path></svg>