<svg width="20" height="19" viewBox="0 0 20 19" fill="none" xmlns="http://www.w3.org/2000/svg"><path d="M3.57143 0C2.39397 0 1.42857 0.98768 1.42857 2.19231V17.5385H0V19H15.7143V17.5385H14.2857V10.2308H15C15.3962 10.2308 15.7143 10.5562 15.7143 10.9615V13.8846C15.7143 14.8951 16.4565 15.6202 17.3661 15.8714C17.5 15.997 17.673 16.0712 17.8571 16.0769C19.0346 16.0769 20 15.0892 20 13.8846V6.02885C20 5.91466 19.9721 5.80048 19.9163 5.69772L17.0592 0.0342555L15.798 0.696515L17.1429 3.36839V5.84615L18.5714 8.76923V13.8846C18.5714 14.29 18.2533 14.6154 17.8571 14.6154C17.4609 14.6154 17.1429 14.29 17.1429 13.8846V10.9615C17.1429 9.95102 16.4007 9.22596 15.4911 8.97476C15.3571 8.84916 15.1842 8.77494 15 8.76923H14.2857V2.19231C14.2857 0.98768 13.3203 0 12.1429 0H3.57143ZM3.57143 1.46154H12.1429C12.5446 1.46154 12.8571 1.78125 12.8571 2.19231V17.5385H2.85714V2.19231C2.85714 1.78125 3.16964 1.46154 3.57143 1.46154ZM4.28571 2.92308V8.76923H11.4286V2.92308H4.28571ZM5.71429 4.38462H10V7.30769H5.71429V4.38462Z" fill="#606680"></path></svg>