<svg width="21" height="19" viewBox="0 0 21 19" fill="none" xmlns="http://www.w3.org/2000/svg"><path d="M10.5 0C4.70996 0 0 4.87016 0 10.8571C0 13.9743 1.2749 16.7699 3.30859 18.7455L3.58203 19H17.418L17.6914 18.7455C19.7251 16.7699 21 13.9743 21 10.8571C21 4.87016 16.29 0 10.5 0ZM10.5 1.80952C15.3433 1.80952 19.25 5.84914 19.25 10.8571C19.25 13.3488 18.228 15.5541 16.6523 17.1905H4.34766C2.77197 15.5541 1.75 13.3488 1.75 10.8571C1.75 5.84914 5.65674 1.80952 10.5 1.80952ZM10.5 2.71429C10.0181 2.71429 9.625 3.12072 9.625 3.61905C9.625 4.11737 10.0181 4.52381 10.5 4.52381C10.9819 4.52381 11.375 4.11737 11.375 3.61905C11.375 3.12072 10.9819 2.71429 10.5 2.71429ZM7 3.6756C6.51807 3.6756 6.125 4.08203 6.125 4.58036C6.125 5.07868 6.51807 5.48512 7 5.48512C7.48193 5.48512 7.875 5.07868 7.875 4.58036C7.875 4.08203 7.48193 3.6756 7 3.6756ZM14 3.6756C13.5181 3.6756 13.125 4.08203 13.125 4.58036C13.125 5.07868 13.5181 5.48512 14 5.48512C14.4819 5.48512 14.875 5.07868 14.875 4.58036C14.875 4.08203 14.4819 3.6756 14 3.6756ZM4.42969 6.33333C3.94775 6.33333 3.55469 6.73977 3.55469 7.2381C3.55469 7.73642 3.94775 8.14286 4.42969 8.14286C4.91162 8.14286 5.30469 7.73642 5.30469 7.2381C5.30469 6.73977 4.91162 6.33333 4.42969 6.33333ZM16.5703 6.33333C16.3994 6.33333 16.2422 6.38635 16.1055 6.4747L11.375 9.30208C11.1187 9.14658 10.8179 9.04762 10.5 9.04762C9.53271 9.04762 8.75 9.85696 8.75 10.8571C8.75 11.8573 9.53271 12.6667 10.5 12.6667C11.4673 12.6667 12.25 11.8573 12.25 10.8571L16.8984 8.05804C17.2129 7.9202 17.4453 7.61272 17.4453 7.2381C17.4453 6.73977 17.0522 6.33333 16.5703 6.33333ZM3.5 9.95238C3.01807 9.95238 2.625 10.3588 2.625 10.8571C2.625 11.3555 3.01807 11.7619 3.5 11.7619C3.98193 11.7619 4.375 11.3555 4.375 10.8571C4.375 10.3588 3.98193 9.95238 3.5 9.95238ZM17.5 9.95238C17.0181 9.95238 16.625 10.3588 16.625 10.8571C16.625 11.3555 17.0181 11.7619 17.5 11.7619C17.9819 11.7619 18.375 11.3555 18.375 10.8571C18.375 10.3588 17.9819 9.95238 17.5 9.95238ZM4.42969 13.5714C3.94775 13.5714 3.55469 13.9779 3.55469 14.4762C3.55469 14.9745 3.94775 15.381 4.42969 15.381C4.91162 15.381 5.30469 14.9745 5.30469 14.4762C5.30469 13.9779 4.91162 13.5714 4.42969 13.5714ZM16.5703 13.5714C16.0884 13.5714 15.6953 13.9779 15.6953 14.4762C15.6953 14.9745 16.0884 15.381 16.5703 15.381C17.0522 15.381 17.4453 14.9745 17.4453 14.4762C17.4453 13.9779 17.0522 13.5714 16.5703 13.5714Z" fill="#606680"></path></svg>